<?xml version="1.0" standalone="no"?>
<!DOCTYPE svg PUBLIC "-//W3C//DTD SVG 20010904//EN"
 "http://www.w3.org/TR/2001/REC-SVG-20010904/DTD/svg10.dtd">
<svg version="1.0" xmlns="http://www.w3.org/2000/svg"
 width="500.000000pt" height="500.000000pt" viewBox="0 0 500.000000 500.000000"
 preserveAspectRatio="xMidYMid meet">
<metadata>
Created by potrace 1.11, written by Peter Selinger 2001-2013
</metadata>
<g transform="translate(0.000000,500.000000) scale(0.100000,-0.100000)"
fill="#000000" stroke="none">
<path d="M3909 4058 c-1 -7 -2 -398 -3 -868 l-1 -855 -653 0 -652 0 2 -200 3
-200 650 0 651 0 -1 -649 0 -650 -827 0 -828 0 0 -203 0 -203 1080 0 1080 0 0
1920 0 1920 -250 0 c-193 0 -250 -3 -251 -12z"/>
<path d="M1769 3916 c-2 -2 -35 -6 -74 -10 -38 -3 -81 -8 -95 -11 -13 -2 -42
-7 -65 -11 -64 -9 -251 -73 -339 -115 -145 -70 -220 -119 -342 -225 -377 -327
-545 -772 -501 -1329 27 -346 180 -677 428 -925 298 -299 680 -450 1119 -444
86 1 222 11 250 19 8 2 32 6 53 9 94 14 328 89 362 115 5 5 21 12 35 16 36 11
189 107 257 162 158 126 299 309 381 496 l21 47 -239 -1 -240 -1 -34 -56 c-57
-94 -152 -200 -237 -263 -88 -67 -258 -142 -379 -168 -210 -45 -487 -25 -678
49 -371 143 -630 479 -689 890 -2 19 -6 107 -8 195 -5 202 13 330 70 494 83
245 277 466 520 596 62 33 240 92 297 99 24 3 61 8 83 11 191 28 466 -10 635
-88 101 -47 220 -139 300 -233 26 -29 107 -151 113 -168 2 -7 374 -12 470 -7
16 1 11 15 -32 96 -116 221 -248 372 -447 511 -46 33 -193 110 -244 129 -25 9
-54 20 -65 25 -143 57 -323 90 -526 95 -87 2 -159 2 -160 1z"/>
</g>
</svg>
